<svg version="1.2" baseProfile="tiny-ps" xmlns="http://www.w3.org/2000/svg" viewBox="0 0 124 124" width="124" height="124">
	<title>menu-svg</title>
	<style>
		tspan { white-space:pre }
		.shp0 { fill: #315268 } 
	</style>
	<g id="Layer">
		<path id="Layer" class="shp0" d="M124 18C124 24.6 118.6 30 112 30L12 30C5.4 30 0 24.6 0 18C0 11.4 5.4 6 12 6L112 6C118.6 6 124 11.4 124 18Z" />
		<path id="Layer" class="shp0" d="M124 62C124 68.6 118.6 74 112 74L12 74C5.4 74 0 68.6 0 62C0 55.4 5.4 50 12 50L112 50C118.6 50 124 55.4 124 62Z" />
		<path id="Layer" class="shp0" d="M124 106C124 112.6 118.6 118 112 118L12 118C5.4 118 0 112.6 0 106C0 99.4 5.4 94 12 94L112 94C118.6 94 124 99.4 124 106Z" />
	</g>
	<g id="Layer">
	</g>
	<g id="Layer">
	</g>
	<g id="Layer">
	</g>
	<g id="Layer">
	</g>
	<g id="Layer">
	</g>
	<g id="Layer">
	</g>
	<g id="Layer">
	</g>
	<g id="Layer">
	</g>
	<g id="Layer">
	</g>
	<g id="Layer">
	</g>
	<g id="Layer">
	</g>
	<g id="Layer">
	</g>
	<g id="Layer">
	</g>
	<g id="Layer">
	</g>
	<g id="Layer">
	</g>
</svg>